<?xml version="1.0" encoding="UTF-8" standalone="no"?>
<svg
   xmlns:dc="http://purl.org/dc/elements/1.1/"
   xmlns:cc="http://creativecommons.org/ns#"
   xmlns:rdf="http://www.w3.org/1999/02/22-rdf-syntax-ns#"
   xmlns:svg="http://www.w3.org/2000/svg"
   xmlns="http://www.w3.org/2000/svg"
   xmlns:sodipodi="http://sodipodi.sourceforge.net/DTD/sodipodi-0.dtd"
   xmlns:inkscape="http://www.inkscape.org/namespaces/inkscape"
   inkscape:version="1.0 (4035a4fb49, 2020-05-01)"
   sodipodi:docname="Hyogo.svg"
   id="svg32"
   version="1.1"
   height="600"
   width="405">
  <metadata
     id="metadata38">
    <rdf:RDF>
      <cc:Work
         rdf:about="">
        <dc:format>image/svg+xml</dc:format>
        <dc:type
           rdf:resource="http://purl.org/dc/dcmitype/StillImage" />
      </cc:Work>
    </rdf:RDF>
  </metadata>
  <defs
     id="defs36" />
  <sodipodi:namedview
     inkscape:current-layer="svg32"
     inkscape:window-maximized="1"
     inkscape:window-y="-8"
     inkscape:window-x="-8"
     inkscape:cy="301.96873"
     inkscape:cx="135.65449"
     inkscape:zoom="1.43"
     showgrid="false"
     id="namedview34"
     inkscape:window-height="1017"
     inkscape:window-width="1920"
     inkscape:pageshadow="2"
     inkscape:pageopacity="0"
     guidetolerance="10"
     gridtolerance="10"
     objecttolerance="10"
     borderopacity="1"
     bordercolor="#666666"
     pagecolor="#ffffff" />
  <title
     id="title2">衆議院小選挙区 兵庫県</title>
  <desc
     id="desc4">Author: Lincun</desc>
  <rect
     id="rect6"
     height="600"
     width="405"
     y="0"
     x="0"
     fill="#eeeeee" />
  <path
     fill="#cccccc"
     d="m 406,115 -1,2 1,2 z m 0,7 -1,1 v 2 l 1,1 z m 0,-38 -4,-1 -3,-5 3,-7 -1,-2 1,-1 -1,-7 -3,1 -2,-1 1,4 -2,1 h 4 v 2 l -1,1 -1,3 h -3 v -3 l -1,3 h -3 l 1,-4 -2,2 -2,-1 5,-10 -7,4 -4,8 v 2 l 8,6 -1,1 2,5 h -2 l -4,7 4,6 5,2 v 3 h 3 l 1,3 -2,2 3,3 2,-2 5,1 1,4 z m 0,42 -1,-1 v -2 l 1,-1 v -3 l -1,-2 1,-2 v -1 l -1,-4 -5,-1 -2,2 -3,-3 2,-2 -1,-3 h -3 v -3 l -5,-2 -4,-6 4,-7 h 2 l -2,-5 1,-1 -8,-6 v -2 l 4,-8 7,-4 h -3 l -1,-2 h -2 l 1,-1 -1,-2 -4,1 -1,-4 2,-2 -1,-2 2,-2 1,1 v -4 l -3,2 -1,2 -5,1 1,3 -3,1 v 5 l -4,-1 -3,3 -1,-2 v 2 l -3,2 -3,-2 -9,7 -2,-1 v -2 l -2,6 v 4 l 2,1 v -2 2 h 2 l -2,7 9,-1 2,1 3,-5 h 2 l -2,3 2,1 -1,2 h 2 l -1,6 1,2 h -2 l -1,-1 -1,2 h -4 v -2 l 3,-2 -1,-1 -6,1 -4,-3 1,3 -3,3 3,-1 -1,2 -5,3 -1,4 -3,2 -2,-2 3,-4 -1,-2 1,-1 -1,-1 2,-1 v -3 l 3,-2 v -8 l -3,-4 -4,5 -7,-1 -5,-3 -1,-3 -7,-1 -2,-3 v -4 l 2,-3 2,1 -1,1 2,2 v -2 l 2,1 4,-2 -2,-3 -5,-1 1,-3 -2,-1 v -2 l 2,-1 v -4 l -5,6 -3,-1 v 3 l -1,4 -6,3 2,4 -2,3 -3,1 -3,-4 2,-8 7,-11 9,-8 2,-11 5,-6 2,-1 v -1 l 1,1 3,-3 2,2 -2,2 2,2 2,-1 -1,-6 3,-6 -4,-4 h -3 l 1,-5 h -65 l -2,1 -2,4 -6,2 h -2 l -3,4 h -3 l -1,-1 -6,1 -2,-1 -2,4 h -2 v 3 h -2 l -1,4 -4,3 -8,4 h -5 l -2,-1 -1,1 -1,-1 -3,1 1,-4 h -2 v -2 l -4,1 v 8 h 1 l 1,6 -2,3 v 5 l -4,4 3,1 5,8 10,7 2,3 -1,4 3,6 8,-2 2,1 4,-4 10,-4 9,-2 1,1 2,11 -4,4 3,1 -2,8 h 2 l 3,9 v 16 l -6,-1 -4,6 -8,3 -2,-4 -4,-1 -4,-4 -4,-1 -3,2 -4,5 1,5 -2,6 1,4 -2,3 1,3 3,3 -2,5 5,3 h 2 l 4,4 10,3 2,-1 4,4 v 4 l 8,4 6,-2 3,10 5,-3 3,-5 h 2 l 3,-2 6,2 2,-2 h 4 l 4,3 2,5 -4,6 6,5 2,-1 6,8 -4,2 v 7 h 2 l 4,4 5,-1 3,-5 h 12 l 5,1 1,5 -3,4 -1,-1 1,3 4,1 14,-3 -1,2 1,3 9,1 1,2 h 5 l -1,3 2,3 -2,5 h 2 l 3,4 -1,4 -7,4 v 2 l -2,2 v 4 l 3,2 1,3 -2,4 2,4 h 4 l 2,1 2,-2 4,4 6,-2 16,7 -3,2 2,6 -3,1 2,3 -2,2 1,1 3,3 3,-2 h 4 v 4 l 3,2 z m -56,-44 -2,-1 -1,2 z m 40,-41 -1,4 1,1 z m 16,253 -3,-2 v -4 h -4 l -3,2 -3,-3 -1,-1 2,-2 -2,-3 3,-1 -2,-6 3,-2 -16,-7 -6,2 -4,-4 -2,2 -2,-1 h -4 l -2,-4 2,-4 -1,-3 -3,-2 -6,-2 v 2 l -4,1 -2,3 3,3 4,1 v 12 l 2,3 -3,2 -1,5 2,1 2,3 7,-1 3,6 1,-1 h 5 l -1,-1 1,2 h 2 v 2 l 7,-2 4,4 2,1 2,-1 -1,4 -7,-1 -7,5 3,1 1,5 4,-3 v 2 l -2,7 -2,7 -4,2 2,6 -2,7 2,6 1,-1 4,5 1,8 2,1 1,3 1,-1 1,10 h -3 l -1,2 v 4 l -12,8 4,5 v 2 l -3,1 -1,1 6,-1 -3,3 v 2 l 3,-2 -3,2 -1,4 2,-3 v 2 h 2 v 2 l 7,1 1,6 h -1 v 1 4 l -2,-3 -4,1 1,3 h -2 l -1,-2 v 3 l 5,1 -1,2 3,1 v 1 l -7,-3 1,5 4,2 6,-1 1,-2 v 3 l -3,-1 -1,1 5,1 v 1 h -4 v 2 h 2 v 2 l -2,-2 v 4 h -2 l -1,-6 h -2 l -3,-3 1,7 -2,1 -2,-9 -4,-3 2,15 11,1 -2,6 -6,8 -3,-1 -1,2 1,2 -1,1 -1,-3 -2,1 2,3 -4,1 -1,-1 1,-2 -2,1 v -2 l -2,2 -2,4 v 3 l 2,2 -1,2 1,2 -3,-2 v 4 l 2,-1 -3,3 v -3 l -3,4 2,1 -2,3 v -2 l -2,3 -3,1 -2,4 -2,-1 -1,2 2,1 -1,2 -2,-2 -1,1 2,2 h -2 l 1,1 -8,7 -3,3 h -2 l -3,6 h -5 l -8,11 -6,2 -3,2 h -5 l -8,2 -4,5 -3,-1 v -2 l -2,1 v 1 h -5 l -4,4 1,1 2,-1 1,1 -3,4 1,4 3,1 1,4 4,-2 2,2 h 1 l 1,-3 2,-1 3,1 v 2 l 4,-2 5,1 2,-3 5,-1 v -7 l 6,2 9,-5 5,1 3,-2 4,7 3,-2 v -3 l 6,-3 2,1 -1,-2 4,-2 v -2 l 2,1 4,-1 1,2 10,-1 3,-1 1,-3 h 6 l 2,-3 3,1 3,-1 4,1 6,-6 1,3 4,2 1,5 5,-4 z m -36,143 -2,4 2,1 v 2 l 4,2 5,-7 2,-5 -3,1 -2,2 -2,4 -2,-3 1,-2 -2,-2 z m -8,-42 -2,3 2,3 4,1 -4,-1 -1,-1 3,-5 z m 8,-4 -1,-1 -5,2 v 2 l 6,1 z m -2,19 1,3 h 5 v -3 z m -1,-7 v 4 l 5,-3 h 1 l -3,2 4,2 1,1 6,-2 -1,-5 -2,-1 z m -48,81 4,-3 4,-3 -2,-2 h -2 l -3,2 -4,3 -3,3 2,3 z m 30,-15 -3,5 2,2 4,-6 -2,-3 z m 57,43 -5,4 -1,-5 -4,-2 -1,-3 -6,6 -4,-1 -3,1 -3,-1 -2,3 h -6 l -1,3 -3,1 -10,1 -1,-2 -4,1 -2,-1 v 2 l -4,2 1,2 -2,-1 -6,3 v 3 l -3,2 -4,-7 -3,2 -5,-1 -9,5 -6,-2 v 7 l -5,1 -2,3 -5,-1 -4,2 v -2 l -3,-1 -2,1 -1,3 h -1 l -2,-2 -4,2 -1,-4 -3,-1 -1,-4 3,-4 -1,-1 -2,1 -1,-1 -6,2 -2,7 2,1 v 3 h -2 l -2,5 8,1 10,8 -1,-3 2,2 3,4 -1,1 -3,-2 -1,3 h 7 l 2,3 -2,2 h 2 v 5 l 2,-1 v 2 l -3,1 -1,-3 1,5 2,-1 v 3 l 6,-2 3,5 -2,-4 1,-1 h 2 l 1,11 h 3 l -3,4 5,-2 3,1 h -2 l -2,3 h -6 l -2,3 -5,-2 -9,1 -1,2 2,1 1,-2 v 4 l 3,2 1,2 h -2 v 1 l -7,-4 -1,3 v 1 h 126 z m -128,89 -1,-1 v -2 l -2,1 1,2 z m -7,-1 h -3 l 2,1 z m -26,-62 3,1 4,-6 2,-1 -3,1 -2,3 h -3 z m 12,-7 -2,1 4,1 5,-2 z M -1,197 h 6 l 4,-3 6,-1 4,-4 6,5 5,-2 h 7 l 5,-6 10,-5 2,-2 -1,-3 3,-1 3,-2 3,5 6,1 4,3 4,-3 h 5 l -1,-2 5,-2 3,-5 9,-6 -2,-6 2,-5 -4,-4 v -3 l 1,-5 2,-5 -3,-3 v -2 l -4,-1 -6,-4 4,-11 -2,-2 v -5 l -11,-6 -2,-10 1,-2 -3,-7 1,-3 -1,-2 -4,-3 4,-10 -2,-1 2,-2 -2,-5 h -3 l -2,-2 2,-7 -5,-5 -7,-3 v -2 l -1,4 -6,1 -1,-3 h -1 l -2,6 H 32 l -3,2 v 5 l -4,1 -2,4 -13,5 -11,2 z m 0,196 3,-1 -2,-3 3,1 3,-3 -3,-2 4,-1 v -1 h 3 v -3 l 2,1 -2,-7 H 8 l -4,3 -3,-1 -2,1 z m 0,-17 4,-2 h -4 z m 0,-4 1,-1 v -1 l -1,-1 z m 0,-4 h 1 8 l 1,2 -2,3 3,-1 2,2 8,-1 v -4 h 2 v -2 l 3,2 1,-2 3,-1 5,2 2,4 1,-4 -3,-2 2,-9 5,-3 -6,-3 v -9 h -2 l -1,-4 -3,-2 -3,-2 v -2 h -7 v -5 l -3,-4 1,-7 3,-2 -1,-3 h 2 v -2 l 6,-3 2,-4 -4,-5 -3,-1 v -3 l -6,-2 v -3 l 7,-7 -1,-1 1,-4 h -2 v -2 l 5,-5 -6,-3 -1,-3 h 2 l -2,-2 4,-2 2,-5 h 3 l 2,-2 2,1 1,-2 2,1 1,-9 1,-1 -1,-5 5,-1 1,-2 h 4 l 1,-3 v -6 l 2,-2 -1,-2 1,-3 2,-5 3,-2 h 5 l 5,2 1,-4 -2,-3 2,-8 -9,-3 v -9 l 4,-3 2,-5 -3,-5 -3,2 -3,1 1,3 -2,2 -10,5 -5,6 h -7 l -5,2 -6,-5 -4,4 -6,1 -4,3 h -6 z m 0,44 v -1 z m 14,-24 3,-1 2,2 3,-2 h -2 l -3,-3 -4,4 H 8 l -1,3 -1,-2 H 5 l 1,3 6,-2 z M 3,370 2,372 h 3 z m 24,15 1,2 h 2 v -2 l -1,1 z m 9,-4 v 2 l 1,-2 z m -12,-3 1,2 2,1 v -2 z m -10,0 v 4 h 2 l -2,1 h 4 l -1,-1 1,-2 3,1 -3,-2 1,-1 z m 0,-2 h 6 l -1,-1 z m 11,-3 -2,-1 -1,3 1,1 3,-1 -2,2 1,1 6,-1 v -3 l 1,4 3,1 h 2 l 1,-4 1,2 2,-1 1,3 2,-2 -4,-6 -3,4 -4,-5 -4,-1 -4,2 z m 97,228 1,-4 4,-8 h -1 l 9,-14 h -6 l -13,-9 v -3 l 2,-5 -1,-3 1,-2 -7,1 2,5 -20,-1 -7,2 -4,4 H 72 v 7 l -3,2 1,6 -6,4 -4,-4 -3,2 -2,-1 -1,-3 -2,1 -5,-5 h -3 l -2,4 -9,-2 -2,3 -3,1 -2,-4 -4,1 -4,-3 -6,2 -8,-1 -4,2 h -1 v 25 z m 6,-28 3,-12 4,-9 -3,3 -6,1 v 4 h 3 l -1,3 -3,3 -2,-2 1,-1 v 1 h 2 l -1,-3 -4,3 -3,-1 v 1 l 1,3 7,2 z m -2,-23 -3,-2 -4,3 -1,4 2,4 -1,3 5,-7 v 1 l 3,-1 z M -1,576 h 1 l 4,-2 8,1 6,-2 4,3 4,-1 2,4 3,-1 2,-3 9,2 2,-4 h 3 l 5,5 2,-1 1,3 2,1 3,-2 4,4 6,-4 -1,-6 3,-2 v -7 l -10,-6 -1,-2 2,-1 v -1 l -4,-1 -1,-5 -5,-4 -2,4 -8,-1 -12,-9 -6,1 -5,-6 -1,3 h -2 l -4,-5 v -4 l 5,-5 -1,-4 2,-2 h -3 v -3 l -2,-3 -6,5 -4,-3 -1,-7 -2,-2 -2,2 3,5 -1,2 h -2 z m 0,-115 h 3 l 1,4 4,-3 2,1 -2,3 h 2 l 1,3 h 1 l -2,6 -3,3 h 3 l 1,1 v 2 l -1,-1 -1,2 H 6 l 2,5 6,-4 -1,-2 5,-7 -1,-2 2,-5 9,-5 5,1 2,2 -1,5 -3,-1 -2,1 -3,-1 -2,1 1,4 h -3 l 2,2 6,-5 3,1 2,-2 6,10 -1,-6 4,-4 2,-7 -3,-2 -1,-2 3,-1 -1,-4 3,-3 -1,-5 2,-2 -2,-4 h -3 v -2 l 3,-5 4,-1 -6,2 1,-3 h -6 l -5,2 -6,4 h -7 l -1,-2 h -2 l -7,9 H 6 l -5,3 h -2 z"
     id="path8"
     style="stroke:#000000;stroke-width:0.2;stroke-linejoin:round" />
  <path
     fill="#dcb6f2"
     d="m 330,381 -8,2 1,5 11,-1 v -2 l -4,-2 4,1 -1,-3 z m 8,-8 -6,-9 2,-1 -3,-2 v -3 l -4,-8 1,-8 -7,-2 v 1 l -4,-3 -2,-4 1,-8 4,-1 5,2 1,-2 h 6 l 3,-5 -4,-9 h -6 l -10,5 -5,-2 h -4 l -5,-4 h -5 l -4,2 1,2 v 13 l -5,3 -5,-1 -4,-3 -11,11 v 4 l 6,6 v 4 h -4 l -1,3 -5,2 h -2 l -3,-2 -2,2 -4,1 -8,-3 v -2 l -5,1 -4,4 h -3 l 2,4 -5,6 -12,5 v 5 h 3 l 2,4 4,-5 h 7 v 10 l 2,3 2,7 16,-1 -3,7 6,5 6,1 11,-3 5,-3 h 9 l 8,-2 6,-2 -3,-4 h 3 l -2,-2 v 1 -2 h 1 2 l -2,-2 h 1 l -1,-2 2,1 1,-2 v 2 l 3,-2 1,3 v 7 l 9,-4 h -4 -1 l 4,-2 -1,-1 -3,2 2,-2 -2,-2 -4,2 -1,-1 v -2 h 2 v -1 h 1 l -1,-1 1,1 -1,-1 h 3 l -1,-1 1,-1 2,1 1,-1 2,1 v -2 l 1,2 -1,-2 h -2 l 2,-2 6,1 h 4 v -2 l 2,1 h 4 v -3 h -1 l 3,-3 v 5 h 3 v -4 l -3,-1 z"
     id="path10"
     style="stroke:#000000;stroke-width:0.2;stroke-linejoin:round" />
  <path
     fill="#f6bad3"
     d="m 165,510 -3,9 h -3 l -5,3 -4,-1 -1,-3 -9,14 h -1 l 2,2 -1,6 3,1 2,6 -6,5 7,-3 h 5 l 2,3 2,-5 h 4 v 5 h -3 l -4,7 1,2 5,1 4,2 v 8 l 13,-5 7,1 6,-4 6,-6 12,-6 8,-4 15,-5 2,-4 -2,1 -2,-10 -7,-5 -2,-9 -3,-1 -1,-3 -1,1 1,-11 -1,-9 1,-4 -1,-4 h 2 l 3,-4 h -3 l 12,-13 4,-7 10,-10 2,-5 v -8 l 7,-6 3,-5 -1,-5 -3,-2 -2,-5 h -3 l -6,4 -13,18 -4,1 -3,4 -9,3 -4,5 -7,14 -4,4 -5,-1 -5,7 h -1 l -4,8 -2,6 -1,-1 -4,10 -3,1 z m 28,69 -3,-4 v 3 l -3,2 v 4 l 4,-1 z m 35,-48 4,6 v 2 l -1,-6 z M 85,420 l 1,-2 -2,1 v 1 z m 5,-15 1,2 v -3 z m 12,-3 -1,-2 -1,1 z m -29,-3 v -2 l -2,3 z m 23,-2 v -2 l -1,3 h -3 l -1,3 5,3 1,-3 h -2 l -1,-1 2,-1 z m -8,-6 h -2 l 1,3 -1,2 -2,-2 -1,2 -2,-1 1,-2 h -2 l -2,8 3,2 4,-4 1,1 h 2 l -2,2 5,-1 -1,-6 -2,1 2,-4 z m 30,1 -5,-3 -3,3 4,7 5,-4 z m -18,-5 3,-1 h -3 l -6,3 2,3 8,4 1,-8 -3,1 -1,2 -1,-2 z m 105,-7 -1,1 v 1 l -1,2 4,2 2,-3 z m 0,-1 6,4 5,7 7,1 13,11 h 15 l 3,-7 -16,1 -2,-7 -2,-3 v -10 h -7 l -4,5 -2,-4 h -3 v -5 l -4,-1 -4,-5 -1,-2 h 2 l -3,-3 v -3 l 4,-2 v -2 l 1,-3 3,2 4,-1 4,3 1,-4 h 8 v 6 h 3 l 4,-4 5,-1 v 2 l 8,3 4,-1 2,-2 3,2 h 2 l 5,-2 1,-3 h 4 v -4 l -6,-6 v -4 l 11,-11 4,3 5,1 5,-3 v -13 l -1,-2 4,-2 h 5 l 5,4 h 4 l 5,2 10,-5 h 6 l 4,9 -3,5 h -6 l -1,2 -5,-2 -4,1 -1,8 2,4 4,3 v -1 l 7,2 -1,8 4,8 v 3 l 3,2 -2,1 6,9 1,2 5,-2 1,-3 3,2 1,-2 1,3 2,-1 -1,1 6,5 -3,3 3,4 2,-3 v 5 l 2,-4 h 4 v -3 h 3 l -2,5 4,-4 12,-8 v -4 l 1,-2 h 3 l -1,-10 -1,1 -1,-3 -2,-1 -1,-8 -4,-5 -1,1 -2,-6 2,-7 -2,-6 4,-2 2,-7 2,-7 v -2 l -4,3 -1,-5 -3,-1 7,-5 7,1 1,-4 -2,1 -2,-1 -4,-4 -7,2 -3,3 1,2 -1,2 -4,3 v 2 l -4,4 1,6 h -3 l -1,2 -2,-1 -1,4 h -4 l -3,-5 -1,-6 -5,-2 6,-2 1,-3 -1,-2 h -2 l -1,-6 -2,-1 1,-2 -4,-5 v -2 l -3,-1 -2,-5 1,-2 3,-1 -2,-4 -6,-1 1,-5 h 6 l 2,-2 h 3 v -3 l 5,-1 -3,-3 2,-3 4,-1 v -2 l 6,2 v -4 l 2,-2 v -2 l 7,-4 1,-4 -3,-4 h -2 l 2,-5 -2,-3 1,-3 h -5 l -1,-2 -9,-1 -1,-3 1,-2 -14,3 -4,-1 -1,-3 1,1 3,-4 -1,-5 -5,-1 h -12 l -3,5 -5,1 -4,-4 h -2 v -7 l 4,-2 -6,-8 -2,1 -6,-5 4,-6 -2,-5 -4,-3 h -4 l -2,2 -6,-2 -3,2 h -2 l -3,5 -5,3 -3,-10 -6,2 -8,-4 v -4 l -4,-4 -2,1 -10,-3 -4,-4 h -2 l -5,-3 2,-5 -3,-3 -1,-3 2,-3 -1,-4 2,-6 -1,-5 4,-5 3,-2 4,1 4,4 4,1 2,4 8,-3 4,-6 6,1 v -16 l -3,-9 h -2 l 2,-8 -3,-1 4,-4 -2,-11 -1,-1 -9,2 -10,4 -4,4 -2,-1 -8,2 -3,-6 1,-4 -2,-3 -10,-7 -5,-8 -3,-1 4,-4 v -5 l 2,-3 -1,-6 h -1 v -8 h -4 l -4,6 -2,-2 1,-3 h -5 l -1,-2 -6,-3 -4,1 v 2 l -5,1 -2,-2 1,-4 -2,5 -2,-1 -1,1 -1,-2 -1,3 h -3 l -6,9 2,5 -3,4 1,3 -2,2 -5,8 -8,1 -3,3 -2,8 -3,1 1,2 -2,4 h -5 v 5 4 l 6,2 2,6 -4,12 2,5 2,2 2,3 -2,4 -1,1 -5,-1 -5,4 -1,6 -1,-2 h -3 l -4,-3 -11,3 -2,-3 -5,3 -4,3 -1,5 v 2 l 3,3 -2,5 -1,5 v 3 l 4,4 -2,5 2,6 -9,6 -3,5 -5,2 1,2 h -5 l -4,3 -4,-3 -6,-1 -2,5 -4,3 v 9 l 9,3 -2,8 2,3 -1,4 2,3 -1,3 v 3 l 2,1 h 4 l 4,7 -2,2 1,2 -2,5 1,11 -1,3 7,3 3,-1 5,7 v 3 l -4,8 1,3 h -2 l -2,4 -3,-1 -4,2 -3,4 v 3 l 3,3 1,-1 2,4 v 8 l -3,2 h -2 v 3 h -2 l -2,3 v 2 l 1,1 -4,10 -1,-1 -7,6 -5,-8 -1,7 -3,-2 -3,1 -3,-3 -3,1 -3,4 2,5 -3,1 h -4 l -1,2 3,2 1,4 h 2 v 9 l 6,3 -5,3 -2,9 3,2 -1,4 6,-7 2,2 5,-2 -1,-4 2,2 2,5 2,-2 -1,2 3,3 1,-4 1,2 h 4 l 1,1 3,-1 5,-7 -3,-2 3,-1 v -4 h 7 l -2,5 4,-4 -2,-6 3,-4 v -3 l -2,-1 2,-3 v 3 l 2,2 -2,2 4,2 -3,1 1,11 3,-5 3,1 2,-4 2,4 -1,-1 v 2 h 2 l 6,-8 4,5 4,-1 1,1 v 2 l 4,2 1,1 4,-2 -1,-3 7,-3 h 2 l -1,1 1,3 2,-1 h 1 l 2,-3 -2,-2 h 6 l -3,2 v 2 2 h 4 v -4 l 3,-2 v -2 l -2,7 4,-6 3,2 -4,3 h 1 l -1,3 h 1 l 4,-5 3,2 v -2 l 2,3 3,-1 v -2 l 2,1 17,5 1,1 -3,3 2,1 2,-1 5,4 1,-2 1,1 -1,1 3,3 v -1 l 3,1 2,1 -2,4 6,5 v -1 l 3,1 2,-5 h 1 v 2 l 2,-4 7,-1 1,1 v -2 l 3,3 z m -55,-24 v 3 h 2 l 1,-4 z m 201,20 1,4 1,-2 z m -11,0 -1,2 5,1 v -4 z m -110,-185 -1,5 3,2 -4,5 2,4 -1,4 3,1 1,2 -6,6 v 3 l -4,5 5,6 v 10 h 5 l 2,-2 3,1 v 3 l -4,3 2,2 v 4 l -4,3 -1,-3 h -4 l 2,2 -1,3 1,1 -4,2 -1,2 -3,11 -6,1 -1,-3 -2,2 h -8 l -2,-3 v -6 l -4,-5 -5,5 v 6 l -3,-1 -5,9 -3,5 2,8 -2,2 v 4 h -3 l -5,-3 -1,-4 -5,1 -1,-1 -5,-1 -5,-7 1,-4 -3,-2 -1,-2 3,-5 -4,-3 -2,-5 4,-2 1,-5 4,-2 -1,-6 -6,-2 v -6 l -4,-3 -1,-3 -4,-1 -2,-2 v -2 l -2,-2 2,-5 -2,-3 4,-7 v -3 h 1 l -1,-4 h 5 l 3,-5 7,-2 -1,3 4,5 -2,2 3,6 7,3 4,-3 -1,3 3,4 5,-6 4,1 4,-2 2,4 6,-6 v -4 l 11,-5 3,-8 h 4 l 5,-6 5,-2 4,1 z m -121,149 1,-10 2,-3 h 3 l 2,-6 2,2 2,-1 3,3 4,-1 -1,3 5,3 -2,6 -4,1 -3,-1 v -2 h -2 l -5,2 h 3 l -4,3 v 2 z"
     id="path12"
     style="stroke:#000000;stroke-width:0.2;stroke-linejoin:round" />
  <path
     fill="#ece3b4"
     d="m 203,384 1,-2 -2,-1 -1,2 z m 1,-3 1,-1 h -2 z m -3,-5 h -3 l 2,2 -2,-1 -2,5 4,1 2,-5 z m 4,3 6,-7 -3,-3 v 2 l -1,-1 -7,1 -2,4 h 3 z M 68,57 l 2,5 -2,2 2,1 -4,10 4,3 1,2 -1,3 3,7 -1,2 2,10 11,6 v 5 l 2,2 -4,11 6,4 4,1 1,-5 4,-3 5,-3 2,3 11,-3 4,3 h 3 l 1,2 1,-6 5,-4 5,1 1,-1 2,-4 -2,-3 -2,-2 -2,-5 4,-12 -2,-6 -6,-2 v -4 -5 h 5 l 2,-4 -1,-2 3,-1 2,-8 3,-3 8,-1 5,-8 2,-2 -1,-3 3,-4 -2,-5 6,-9 -2,-3 h -3 l -2,1 v 4 h -4 l -1,-2 1,-2 -2,-1 -1,4 h -2 l -2,-2 -3,5 -2,-4 h 2 v -3 l -4,2 -3,5 -4,-1 1,3 -2,1 -3,-1 v -2 h -2 v -3 l -3,-1 -2,1 -4,-2 v 3 l -3,-2 -2,3 -6,-8 -3,2 h -3 l -1,1 v -1 l -1,3 -3,-1 -1,2 -4,1 -4,5 h -4 l -3,4 h -4 l -1,-3 -1,2 1,3 -1,1 -4,-2 -1,3 -4,1 -3,-2 -4,3 -3,-1 v 2 l 7,3 5,5 -2,7 2,2 z m -39,245 -2,4 -6,3 v 2 h -2 l 1,3 -3,2 -1,7 3,4 v 5 h 7 v 2 l 3,2 1,-2 h 4 l 3,-1 -2,-5 3,-4 3,-1 3,3 3,-1 3,2 1,-7 5,8 7,-6 1,1 4,-10 -1,-1 v -2 l 2,-3 h 2 v -3 h 2 l 3,-2 v -8 l -2,-4 -1,1 -3,-3 v -3 l 3,-4 4,-2 3,1 2,-4 h 2 l -1,-3 4,-8 v -3 l -5,-7 -3,1 -7,-3 1,-3 -1,-11 2,-5 -1,-2 2,-2 -4,-7 h -4 l -2,-1 v -3 l 1,-3 -2,-3 -5,-2 h -5 l -3,2 -2,5 -1,3 1,2 -2,2 v 6 l -1,3 h -4 l -1,2 -5,1 1,5 -1,1 -1,9 -2,-1 -1,2 -2,-1 -2,2 h -3 l -2,5 -4,2 2,2 h -2 l 1,3 6,3 -5,5 v 2 h 2 l -1,4 1,1 -7,7 v 3 l 6,2 v 3 l 3,1 z m 207,-48 v -4 l -2,-2 4,-3 v -3 l -3,-1 -2,2 h -5 v -10 l -5,-6 4,-5 v -3 l 6,-6 -1,-2 -3,-1 1,-4 -2,-4 4,-5 -3,-2 1,-5 -1,-2 -4,-1 -5,2 -5,6 h -4 l -3,8 -11,5 v 4 l -6,6 -2,-4 -4,2 -4,-1 -5,6 -3,-4 1,-3 -4,3 -7,-3 -3,-6 2,-2 -4,-5 1,-3 -7,2 -3,5 h -5 l 1,4 h -1 v 3 l -4,7 2,3 -2,5 2,2 v 2 l 2,2 4,1 1,3 4,3 v 6 l 6,2 1,6 -4,2 -1,5 -4,2 2,5 4,3 -3,5 1,2 3,2 -1,4 5,7 5,1 1,1 5,-1 1,4 5,3 h 3 v -4 l 2,-2 -2,-8 3,-5 5,-9 3,1 v -6 l 5,-5 4,5 v 6 l 2,3 h 8 l 2,-2 1,3 6,-1 3,-11 1,-2 4,-2 -1,-1 1,-3 -2,-2 h 4 l 1,3 z m -127,85 6,1 v -2 l 4,-3 h -3 l 5,-2 h 2 v 2 l 3,1 4,-1 2,-6 -5,-3 1,-3 -4,1 -3,-3 -2,1 -2,-2 -2,6 h -3 l -2,3 z m 240,-81 -5,1 v 3 h -3 l -2,2 h -6 l -1,5 6,1 2,4 -3,1 -1,2 2,5 3,1 v 2 l 4,5 -1,2 2,1 1,6 h 2 l 1,2 -1,3 -6,2 5,2 1,6 3,5 h 4 l 1,-4 2,1 1,-2 h 3 l -1,-6 4,-4 v -2 l 4,-3 1,-2 -1,-2 3,-3 v -2 h -2 l -1,-2 1,1 h -5 l -1,1 -3,-6 -7,1 -2,-3 -2,-1 1,-5 3,-2 -2,-3 v -12 z m -135,113 4,1 12,-5 5,-6 -2,-4 v -6 h -8 l -1,4 -4,-3 -4,1 -3,-2 -1,3 v 2 l -4,2 v 3 l 3,3 h -2 l 1,2 z"
     id="path14"
     style="stroke:#000000;stroke-width:0.2;stroke-linejoin:round" />
  <path
     fill="none"
     stroke-linecap="round"
     d="m 209,328 h 2 v -9 l 5,-7 -2,-3 2,-7 1,-3 2,2 -1,2 2,-3 3,1 v 1 l 3,4 -3,7 4,-2 7,1 3,-5 8,-2 1,5 6,3 v 10 l 9,-4 3,-3 v -5 h 4 l 6,-2 4,-12 3,-2 m -29,28 -5,1 -3,3 2,2 -2,3 -7,2 -2,3 -5,1 -3,3 -2,-2 h -2 m -7,-37 v -1 h -3 l 4,-2 -2,-4 1,-2 4,2 4,-2 -1,-9 h -5 l -5,-2 -1,-7 m 11,9 11,-1 3,3 5,-2 3,-1 1,-2 2,1 10,-3 3,-4 -2,-2 v -4 l 4,-4 m 10,16 3,3 4,-3 2,4 h 2 l 4,-6 v -7 l 1,-1 5,2 2,-5 1,2 1,-1 1,-4 4,-2 2,-5 h 4 l 3,-3 4,2 2,-3 1,1 1,2 2,2 h -1 l 1,1 1,4 9,-2 1,2 m -59,-16 5,-3 4,4 h 2 l -1,-6 -2,-2 2,-3 h -2 l -1,-2 -3,-8 4,-6 h 6 l 3,-3 6,2 12,-1 3,-3 -1,-2 4,-3 -2,-5 m -87,-54 v 3 l -4,4 -1,4 -6,9 v 6 l 2,1 -3,4 6,5 m 5,-73 -6,-6 -4,4 v 3 h -7 l -5,-2 -2,1 1,8 -3,4 h -8 l -3,2 -2,4 -3,1 -1,2 3,5 -3,5 -7,2 2,4 5,4 v 5 l -2,3 -8,4 -3,-4 -4,-2 h -4 l -3,2 -3,-1 -1,-4 -5,6 4,5 -2,4 m -15,-67 6,-2 5,3 5,-2 3,2 h 3 l 2,-1 2,2 4,1 3,-4 -2,-2 1,-3 7,-1 6,2 v -3 l 5,-1 3,2 v 4 l 5,2 2,4 2,4 3,1 m 158,232 v -3 l 1,1 3,-2 -3,-5 4,-2 2,3 2,-1 h 1 l -2,-6 2,-3 h 3 -2 l 1,-3 -12,-3 v -3 l -3,-2 m 12,20 1,3 h 6 m -10,-13 v -1 l 2,1 h -2 m -38,21 h 5 l 4,3 6,10 3,7 m -139,182 -5,-4 -3,-5 -4,-2 1,-3 2,-4 -3,-9 v -2 l 2,1 1,-1 -1,-3 2,-2 -7,-3 -3,-6 -4,3 -6,-1 -2,1 -1,-3 -3,3 -2,-2 h -5 m 14,-28 6,2 2,-1 3,2 6,-1 1,2 v 4 l 4,2 2,-4 h 2 l 3,3 v 4 l 5,-2 M 186,368 v -12 l 4,-3 -4,-4 2,-1 -4,-2 -2,-8 -5,-1 m -63,-49 -1,-3 2,-3 -3,-3 -1,-2 2,-4 h 3 l 1,-7 3,-4 v -10 l 2,-6 4,-1 h -2 v -2 l 5,-7 2,1 2,-2 h 4 l 4,3 v -3 l 3,-2 m -61,127 1,-7 8,-4 -1,-5 1,-6 -1,-7 -3,2 -4,-8 -4,-1 v -5 l 6,-2 v -4 l 3,-1 -1,-2 2,-2 -1,-1 -1,-2 1,-1 -4,-3 2,-4 h -3 l -2,6 -6,-1 m 37,-17 h -7 l 1,-8 -4,3 -6,-3 -3,-4 1,-5 h -7 l 1,-2 -2,-1 m -11,95 3,-6 -6,-2 2,-5 -1,-1 -4,2 -2,-1 v -8 l -5,-5 2,-3 -2,-3 1,-5 m 20,37 v 1 m 1,-253 3,-3 1,-7 -1,-7 2,-5 8,-8 7,1 3,-3 -1,-1 v -4 h -1 l -1,-10 3,-4 5,-1 5,-5 1,-5 -2,-1 -2,-8 -8,-3 h -4 l -4,-4 2,-6 -3,-5 m 57,242 4,2 4,10 9,3 v 6 l 8,-3 5,1 m -26,-32 5,1 2,4 6,-1 1,3 1,-2 h 2 l 6,1 6,-7 7,-1 m -166,56 1,-2 v -3 l 5,-2 -1,-2 2,1 2,-3 h 3 l -2,3 3,2 4,-3 1,-3 h 8 l 2,2 1,-1 h 7 l 5,-3"
     id="path16"
     style="stroke:#000000;stroke-width:0.2;stroke-linejoin:round" />
  <path
     fill="none"
     stroke-width="1.6"
     stroke-linecap="round"
     d="m 254,395 -16,1 -2,-7 -2,-3 v -10 h -7 l -4,5 -2,-4 h -3 v -5 l -4,-1 -3,1 -6,7 m 13,-7 12,-5 5,-6 -2,-4 v -6 h -8 l -3,-6 1,-6 -2,-5 -10,-2 -2,-4 h -3 l -3,-4 -2,-1 -2,1 -6,-3 -4,2 -2,-1 2,-2 -1,-2 -3,2 -3,-2 3,9 -2,-1 v 2 l -4,1 -3,-1 v 4 h -3 l -1,2 h 4 l 1,3 -2,1 v 2 l -2,4 -4,1 -2,-4 -1,2 2,4 -1,1 1,5 1,-4 2,-1 -1,-3 3,5 -1,7 m 209,-3 h -2 l 2,-1 -1,-1 -4,2 -2,-1 -1,6 -4,-4 -2,2 -2,-4 -2,1 v -2 l -3,-2 v 9 l 3,13 -4,10 m 1,-32 -1,-2 v 4 l -2,-1 -3,2 -4,-1 v -2 h -5 l -4,-3 h -4 l 3,-2 -2,-3 11,-5 -3,-4 h -2 l 1,-3 -4,-6 v -3 l -4,1 v -1 l -2,-1 -3,5 h -6 l -1,2 -5,-2 -4,1 -1,8 2,4 4,3 v -1 l 7,2 -1,8 4,8 v 3 l 3,2 -2,1 6,9 m -3,-53 -4,-9 -2,-4 v -9 l 6,-3 3,2 v -1 l 2,-6 -3,-4 1,-4 3,1 v 2 l 4,5 -1,2 2,1 1,6 h 2 l 1,2 -1,3 -6,2 5,2 1,6 3,5 h 4 l 1,-4 2,1 1,-2 h 3 l -1,-6 4,-4 v -2 l 4,-3 1,-2 -1,-2 3,-3 m -109,64 5,-2 1,-3 h 4 v -4 l -6,-6 v -4 l 11,-11 4,3 5,1 5,-3 v -13 l -1,-2 4,-2 -2,-2 -1,-7 -2,-1 1,-4 -3,-6 -8,5 -3,-1 -1,-6 -3,-3 -1,-4 v -9 l -4,1 v -3 l -2,1 -1,-4 -3,-2 3,-7 8,-5 2,-3 -2,-2 -10,3 -1,-3 -6,1 -4,-2 v -6 l -15,1 -3,-1 -2,2 h -5 v -10 l -5,-6 4,-5 v -3 l 6,-6 -1,-2 -3,-1 1,-4 -2,-4 4,-5 -3,-2 1,-5 -1,-2 -4,-1 -5,2 -5,6 1,3 -3,6 2,4 -4,6 -4,2 -3,8 -4,2 -1,3 2,6 -4,2 v 2 l -2,7 3,5 -3,3 3,5 v 2 l -5,5 v 6 l -3,-1 -5,9 -3,5 2,8 -2,2 v 4 5 l -3,6 1,3 6,2 2,3 m 108,-8 h 5 l 5,4 h 4 l 5,2 10,-5 h 6 M 182,299 h -3 l -5,-3 -1,-4 -5,1 m -74,-152 9,7 v 1 l 3,1 1,2 9,5 1,7 4,3 3,2 7,-6 4,3 4,7 2,1 2,-2 5,6 3,-3 1,3 -2,2 2,3 v 5 l 4,1 3,6 3,1 -3,2 -1,3 4,5 -2,2 3,6 7,3 4,-3 -1,3 3,4 5,-6 4,1 4,-2 2,4 6,-6 v -4 l 11,-5 3,-8 h 4 m -101,93 v 4 l -2,2 2,7 -3,3 2,3 h 5 l 2,-1 2,1 v 6 l -4,4 -1,3 2,2 2,-1 3,3 4,-1 -1,3 5,3 -2,6 -4,1 -3,-1 v -2 h -2 l -5,2 h 3 l -4,3 v 2 l -6,-1 1,2 4,6 -1,11 m 138,44 3,-7 m -51,-11 1,-2 m 0,-1 1,-1"
     id="path18"
     style="stroke:#000000;stroke-linejoin:round;stroke-width:0.2;stroke-miterlimit:4;stroke-dasharray:none" />
  <g
     id="g30">
    <rect
       id="rect24"
       height="36"
       width="176"
       y="4"
       x="225"
       opacity="0.75"
       fill="white" />
    <rect
       id="rect26"
       height="8"
       width="168"
       y="8"
       x="229"
       fill="black" />
    <text
       id="text28"
       y="36"
       x="313"
       font-family="sans-serif"
       font-size="24"
       text-anchor="middle"
       fill="black">50km</text>
  </g>
</svg>
